<svg width="30" height="28" viewBox="0 0 30 28" fill="none" xmlns="http://www.w3.org/2000/svg">
<path d="M21.25 21C21.913 21 22.5489 21.2459 23.0178 21.6835C23.4866 22.121 23.75 22.7145 23.75 23.3334C23.75 23.9522 23.4866 24.5457 23.0178 24.9833C22.5489 25.4209 21.913 25.6667 21.25 25.6667C19.8625 25.6667 18.75 24.6167 18.75 23.3334C18.75 22.0384 19.8625 21 21.25 21ZM1.25 2.33337H5.3375L6.5125 4.66671H25C25.3315 4.66671 25.6495 4.78962 25.8839 5.00842C26.1183 5.22721 26.25 5.52396 26.25 5.83337C26.25 6.03171 26.1875 6.23004 26.1 6.41671L21.625 13.965C21.2 14.6767 20.375 15.1667 19.4375 15.1667H10.125L9 17.0684L8.9625 17.2084C8.9625 17.2857 8.99542 17.3599 9.05403 17.4146C9.11263 17.4693 9.19212 17.5 9.275 17.5H23.75V19.8334H8.75C7.3625 19.8334 6.25 18.7834 6.25 17.5C6.25 17.0917 6.3625 16.7067 6.55 16.38L8.25 13.5217L3.75 4.66671H1.25V2.33337ZM8.75 21C9.41304 21 10.0489 21.2459 10.5178 21.6835C10.9866 22.121 11.25 22.7145 11.25 23.3334C11.25 23.9522 10.9866 24.5457 10.5178 24.9833C10.0489 25.4209 9.41304 25.6667 8.75 25.6667C7.3625 25.6667 6.25 24.6167 6.25 23.3334C6.25 22.0384 7.3625 21 8.75 21ZM20 12.8334L23.475 7.00004H7.675L10.625 12.8334H20Z" fill="black"/>
</svg>
