<svg width="33" height="33" viewBox="0 0 33 33" fill="none" xmlns="http://www.w3.org/2000/svg">
<path d="M12.375 8.24999V11H2.75V8.24999H12.375ZM12.375 15.125V17.875H2.75V15.125H12.375ZM24.75 22V24.75H2.75V22H24.75ZM26.5513 15.8125C27.1563 14.8775 27.5 13.75 27.5 12.5262C27.5 9.08874 24.75 6.33875 21.3125 6.33875C17.875 6.33875 15.125 9.08874 15.125 12.5262C15.125 15.9637 17.875 18.7137 21.3125 18.7137C22.5088 18.7137 23.6363 18.37 24.585 17.7787L28.875 22L30.7863 20.0887L26.5513 15.8125ZM21.3125 15.9637C19.415 15.9637 17.875 14.4375 17.875 12.5262C17.875 10.615 19.415 9.08875 21.3125 9.08875C23.21 9.08875 24.75 10.6287 24.75 12.5262C24.75 14.4237 23.21 15.9637 21.3125 15.9637Z" fill="black"/>
</svg>
